<svg width="77" height="39" viewBox="0 0 77 39" fill="none" xmlns="http://www.w3.org/2000/svg">
<path d="M6.10352e-05 10.9724H15.566V7.50322H6.10352e-05V10.9724Z" fill="white"/>
<path d="M6.10352e-05 17.8228H15.566V14.339H6.10352e-05V17.8228Z" fill="white"/>
<path d="M41.482 10.9726V7.50336H22.5167V38.5293H41.482V34.9957H25.8932V10.9726H41.482Z" fill="white"/>
<path d="M41.4821 17.8227V14.3391H29.2778V31.6326H41.4821V28.1804H32.7929V17.8227H41.4821" fill="white"/>
<path d="M36.2507 24.7277H41.4822V21.2439H36.2507V24.7277Z" fill="white"/>
<path d="M41.4822 0.529299H0V4.01308H15.5658V38.5293H18.9885V4.01308H41.4822V0.529299Z" fill="white"/>
<path d="M49.6642 24.8939C49.9839 24.8939 50.2261 24.9381 50.3902 25.0259C50.5541 25.1139 50.704 25.2619 50.8401 25.4699L54.4878 31.0252C54.6236 31.2334 54.7894 31.393 54.9856 31.5051C55.1813 31.6172 55.4194 31.673 55.6995 31.673H58.6034L54.2595 25.266C53.9637 24.8341 53.6115 24.502 53.204 24.2698C53.8116 24.0781 54.3533 23.8222 54.8294 23.502C55.3053 23.1823 55.7054 22.8103 56.0292 22.3863C56.3535 21.9624 56.6012 21.4906 56.7731 20.9705C56.945 20.4505 57.0312 19.8987 57.0312 19.3148C57.0312 18.5787 56.9052 17.9047 56.6533 17.2929C56.4012 16.6811 56.0054 16.1551 55.4656 15.7152C54.9255 15.2753 54.2336 14.9333 53.39 14.6892C52.5456 14.4453 51.5321 14.3232 50.348 14.3232H45.0568V31.673H48.2843V24.8939H49.6642ZM48.2843 16.8189H50.348C51.5402 16.8189 52.4258 17.0549 53.0054 17.5268C53.5857 17.9991 53.8759 18.6749 53.8759 19.5545C53.8759 19.9946 53.8036 20.3987 53.6597 20.7665C53.5157 21.1346 53.2978 21.4526 53.0054 21.7204C52.7135 21.9885 52.3415 22.1983 51.89 22.3503C51.4379 22.5022 50.9078 22.5783 50.3001 22.5783H48.2843V16.8189ZM67.4101 14.3232H64.1822V25.578C64.1822 26.2338 64.1222 26.792 64.0026 27.2517C63.8827 27.7119 63.7043 28.0855 63.4683 28.3738C63.2322 28.6615 62.9387 28.8716 62.5865 29.0033C62.2345 29.1358 61.8307 29.2016 61.3745 29.2016C61.0388 29.2016 60.7606 29.1737 60.5407 29.1174C60.3206 29.0616 60.1428 29.0335 60.0069 29.0335C59.7829 29.0335 59.6127 29.0874 59.4966 29.1954C59.3809 29.3035 59.3149 29.4456 59.2989 29.6215L59.1311 31.5412C59.587 31.6532 60.0228 31.7353 60.4387 31.7875C60.8547 31.839 61.2789 31.8652 61.7107 31.8652C62.6545 31.8652 63.4821 31.7169 64.1945 31.421C64.9065 31.1253 65.5002 30.7011 65.9761 30.1496C66.4521 29.5972 66.81 28.9293 67.0501 28.1456C67.2899 27.3618 67.4101 26.482 67.4101 25.5058V14.3232" fill="white"/>
</svg>
